<?xml version="1.0" encoding="utf-8"?>
<!-- Generator: Adobe Illustrator 23.1.0, SVG Export Plug-In . SVG Version: 6.00 Build 0)  -->
<svg version="1.1" id="Layer_1" xmlns="http://www.w3.org/2000/svg" xmlns:xlink="http://www.w3.org/1999/xlink" x="0px" y="0px"
	 viewBox="0 0 333.8 100" style="enable-background:new 0 0 333.8 100;" xml:space="preserve">
<style type="text/css">
	.st0{fill:#3B5998;}
	.st1{fill-rule:evenodd;clip-rule:evenodd;fill:#FFFFFF;}
	.st2{fill:#FFFFFF;}
	.st3{font-family:'NunitoSans-Bold';}
	.st4{font-size:63.2153px;}
</style>
<rect x="21.2" class="st0" width="277.3" height="100"/>
<g>
	<path class="st1" d="M225.4,58.2c-1.5-0.2-2.8,0.3-3.9,1.6v-8.2l-4,0.5v18.9h4v-1.1c0.5,0.4,1.1,0.8,1.7,1.1c2.3,0.8,5.4,0.2,6.5-3
		c0.7-2,0.7-4.1,0.2-6.1C229.3,59.7,227.8,58.5,225.4,58.2z M226,66.4c-0.2,1.2-1.2,1.9-2.3,1.8c-0.3,0-0.6-0.1-0.8-0.2
		c-0.9-0.5-1.2-1.5-1.3-2c0,0,0,0,0,0c-0.1-0.9-0.1-2.7,0.3-3.6c0.4-0.7,1-1,1.9-1.1c1.2,0,2.1,0.6,2.3,1.8
		C226.2,64.2,226.2,65.3,226,66.4L226,66.4z"/>
	<path class="st1" d="M239.6,58.5c-1.4-0.4-2.8-0.4-4.2,0c-2.1,0.6-3.5,1.9-3.9,4c-0.2,1.1-0.3,2.4-0.2,3.5c0.1,2.7,1.8,4.6,4.4,5.2
		c0,0,0.1,0,0.1,0h0c0,0,0,0,0,0c0.1,0,0.2,0,0.3,0.1c0,0,0.1,0,0.1,0h0c0.1,0,0.3,0,0.4,0.1c0.5,0.1,1.1,0.1,1.7,0c0,0,0,0,0,0
		c0,0,0.1,0,0.1,0c2.7-0.1,4.7-1.8,5.3-4.4c0.3-1.4,0.3-2.8,0-4.2C243.2,60.5,241.8,59.1,239.6,58.5L239.6,58.5z M239.8,66.2
		c0,0.1,0,0.2,0,0.2c-0.3,1.2-1.1,1.8-2.3,1.8c-1.2-0.1-2.1-0.8-2.2-2c-0.1-0.9-0.1-1.8,0-2.7c0.1-1.4,1-2.2,2.3-2.2
		c1.1,0,1.9,0.6,2.1,1.7C240,64.1,239.8,66,239.8,66.2z"/>
	<path class="st1" d="M179.5,58.4h-2.9v-1.9c0.2-1.8,3.2-1.5,3.2-1.5l0-0.1l0,0v-3h0v0h0c-0.1,0-5.9-1.4-7.1,3c0,0,0,0,0,0
		c0,0,0,0,0,0c-0.2,0.6-0.2,3.1-0.2,3.4h-2.5v3.4h2.6V71h3.8v-9.2h2.9l0.3-3.4C179.9,58.4,179.5,58.4,179.5,58.4z"/>
	<path class="st1" d="M188.7,60c0-0.1-0.1-0.1-0.1-0.1v0c0,0,0,0,0,0c-0.1-0.1-0.1-0.1-0.1-0.1c-0.9-0.9-1.2-1.1-1.9-1.4
		c-2.7-0.8-5.4,0.6-6.2,3.4c-0.5,1.7-0.5,3.4-0.2,5.1c0.7,3.7,3.4,4.9,6.3,4.3c0.9-0.2,1.6-0.7,2.2-1.5c0,0,0.1-0.1,0.1-0.2v1.6h3.7
		V58.4h-3.7L188.7,60L188.7,60z M188.3,66.4c-0.1,1.2-1.1,1.9-2.2,1.8c-1.1,0-1.9-0.7-2.2-1.8c-0.3-1.6,0.1-3.4,0.1-3.6
		c0.3-1.1,1.1-1.6,2.2-1.5c1.1,0,2,0.7,2.1,1.8C188.5,64.2,188.5,65.3,188.3,66.4z"/>
	<path class="st1" d="M203.8,70.2c-0.2-0.6-0.4-1.3-0.6-1.9l-0.2-0.7c0,0-4.7,2.2-5.4-2c-0.1-0.7,0-1.4,0.1-2.1c0.2-1.3,1-2,2.3-2.1
		c0.4,0,0.9,0,1.3,0.1c0.6,0.1,1.1,0.3,1.8,0.4c0.2-0.7,0.4-1.3,0.7-2c0-0.1,0.1-0.2,0.1-0.3h0l0.1-0.4c0-0.1-0.1-0.1-0.2-0.2v0
		c-0.1-0.1-0.3-0.2-0.6-0.3c-0.1,0-0.2-0.1-0.3-0.1c-0.1,0-0.2-0.1-0.2-0.1h0c-1.2-0.4-2.5-0.4-3.8-0.2c-2.7,0.3-4.5,1.9-5,4.5
		c-0.3,1.4-0.3,2.8,0.1,4.2c0.5,2.1,1.7,3.4,3.8,4c1.3,0.4,2.7,0.4,4.1,0.2c0.6-0.1,1.4-0.4,2-0.6l0.2-0.1L203.8,70.2L203.8,70.2
		L203.8,70.2z"/>
	<path class="st1" d="M216.1,65.2c0-0.9,0-1.8-0.1-2.6c-0.3-2.4-1.8-3.9-4.1-4.2c-0.9-0.1-1.8-0.1-2.7,0c-2.5,0.2-4.3,1.8-4.7,4.1
		c-0.2,1.4-0.3,2.9-0.1,4.3c0.3,2.1,1.3,3.5,3.1,4.1h0c0,0,0,0,0,0c0,0,0,0,0,0c0.8,0.2,4.8,1.3,8.3-0.5l-0.1-0.5c0,0,0,0,0,0
		c-0.2-0.7-0.4-1.4-0.5-2.1l0-0.1c0,0-0.1,0-0.2,0.1c0,0,0,0,0,0c-0.2,0-0.3,0.1-0.5,0.1c0,0-0.1,0-0.1,0c-0.5,0.1-1.3,0.3-2.1,0.4
		c-0.7,0.1-1.4,0.1-2,0c-1.1-0.2-2-0.8-1.9-2.2h0.6c2.2,0,4.4,0,6.6,0c0.1,0,0.1,0,0.2,0l0,0c0,0,0.5,0,0.5,0c0,0,0-0.1,0-0.1
		L216.1,65.2L216.1,65.2z M212.5,63.5h-4.3c0-0.9,0.1-1.7,0.9-2.1c0.8-0.5,1.7-0.5,2.5-0.1C212.5,61.7,212.6,62.6,212.5,63.5z"/>
	<polygon class="st1" points="270.7,58.6 266.5,58.6 262.8,64.3 262.8,52.3 262.8,52.2 262.8,51.7 258.8,52.2 258.8,71.1 
		262.8,71.1 262.8,65.3 266.5,71.1 270.7,71.1 266.7,64.8 	"/>
	<path class="st1" d="M253.3,58.5c-1.4-0.4-2.8-0.4-4.2,0c-2.1,0.6-3.5,1.9-3.9,4c-0.2,1.1-0.3,2.4-0.2,3.5c0.1,2.7,1.8,4.6,4.4,5.2
		c0,0,0.1,0,0.1,0h0c0,0,0,0,0,0c0.1,0,0.2,0,0.3,0.1c0,0,0.1,0,0.1,0c0,0,0,0,0,0c0.1,0,0.3,0,0.4,0.1c0.5,0.1,1.1,0.1,1.7,0
		c0,0,0,0,0,0c0,0,0.1,0,0.1,0c2.7-0.1,4.7-1.8,5.3-4.4c0.3-1.4,0.3-2.8,0-4.2C256.8,60.5,255.5,59.1,253.3,58.5L253.3,58.5z
		 M253.5,66.2c0,0.1,0,0.2,0,0.2c-0.3,1.2-1.1,1.8-2.3,1.8c-1.2-0.1-2.1-0.8-2.2-2c-0.1-0.9-0.1-1.8,0-2.7c0.1-1.4,1-2.2,2.3-2.2
		c1.1,0,1.9,0.6,2.1,1.7C253.7,64.1,253.5,66,253.5,66.2z"/>
</g>
<rect x="-9.4" y="184.5" class="st0" width="333.8" height="100"/>
<rect x="58.4" y="184.5" class="st0" width="266" height="100"/>
<text transform="matrix(1 0 0 1 28.6752 255.3278)" class="st2 st3 st4">mini</text>
<text transform="matrix(1 0 0 1 38.0637 70.8469)" class="st2 st3 st4">mini</text>
<image style="overflow:visible;" width="1600" height="1200" xlink:href="92284350.jpg"  transform="matrix(2.969470e-02 0 0 2.969470e-02 157.5287 221.6371)">
</image>
</svg>
