<svg xmlns="http://www.w3.org/2000/svg" viewBox="0 0 277.3 100"><defs><style>.cls-1{fill:#3b5998;}.cls-2,.cls-3{fill:#fff;}.cls-2{fill-rule:evenodd;}.cls-3{font-size:63.22px;font-family:NunitoSans-Bold, Nunito Sans;font-weight:700;}</style></defs><title>miniFB</title><g id="Layer_2" data-name="Layer 2"><g id="Layer_1-2" data-name="Layer 1"><rect class="cls-1" width="277.3" height="100"/><path class="cls-2" d="M204.2,58.24a4.21,4.21,0,0,0-3.93,1.62V51.71l-4,.48V71.07h4V70A7.7,7.7,0,0,0,202,71a4.88,4.88,0,0,0,6.48-3,10.41,10.41,0,0,0,.16-6.08A4.68,4.68,0,0,0,204.2,58.24Zm.59,8.17a2.05,2.05,0,0,1-2.34,1.81,3.23,3.23,0,0,1-.8-.18,2.68,2.68,0,0,1-1.31-2h0a9,9,0,0,1,.3-3.61,2.07,2.07,0,0,1,1.86-1.06,2,2,0,0,1,2.29,1.78,11.34,11.34,0,0,1,0,3.29Z"/><path class="cls-2" d="M218.38,58.47a8,8,0,0,0-4.18,0,5,5,0,0,0-3.92,4,13.07,13.07,0,0,0-.23,3.53,5.4,5.4,0,0,0,4.37,5.18l.11,0h0l.3.06h.1l.43,0a8.55,8.55,0,0,0,1.68,0h.09a5.48,5.48,0,0,0,5.25-4.37,9.34,9.34,0,0,0,0-4.24,5.23,5.23,0,0,0-4-4.22Zm.17,7.74c0,.08,0,.16,0,.25a2.27,2.27,0,0,1-4.46-.24,14.43,14.43,0,0,1,0-2.71,2.28,2.28,0,0,1,4.48-.48A12.09,12.09,0,0,1,218.55,66.21Z"/><path class="cls-2" d="M158.29,58.4h-2.86V56.5c.21-1.79,3.18-1.45,3.18-1.45V52h0c-.1,0-5.9-1.4-7,3h0v0a22.86,22.86,0,0,0-.17,3.39H148.9v3.38h2.63V71h3.83v-9.2h2.93l.33-3.38Z"/><path class="cls-2" d="M167.42,60l-.13-.14h0l0,0-.1-.1a4,4,0,0,0-1.94-1.35,4.89,4.89,0,0,0-6.2,3.35,10.79,10.79,0,0,0-.22,5.11c.65,3.69,3.39,4.92,6.31,4.31a3.76,3.76,0,0,0,2.18-1.52,2.05,2.05,0,0,0,.12-.2v1.62h3.74V58.42h-3.74V60Zm-.33,6.37a2,2,0,0,1-2.19,1.83,2.1,2.1,0,0,1-2.15-1.76,10.82,10.82,0,0,1,.08-3.57,2.19,2.19,0,0,1,4.26.27A15.16,15.16,0,0,1,167.09,66.39Z"/><path class="cls-2" d="M182.57,70.17c-.18-.63-.37-1.26-.56-1.86l-.18-.67s-4.69,2.25-5.42-2a10,10,0,0,1,.05-2.12,2.3,2.3,0,0,1,2.26-2.14,5.23,5.23,0,0,1,1.31,0c.58.1,1.14.27,1.78.43.22-.67.44-1.34.65-2a2.13,2.13,0,0,0,.09-.27h0l.1-.41a.44.44,0,0,0-.17-.16h0a2,2,0,0,0-.58-.27l-.35-.12-.17,0h0a9.82,9.82,0,0,0-3.78-.24,5.35,5.35,0,0,0-5.05,4.51,10.33,10.33,0,0,0,.05,4.18,5.08,5.08,0,0,0,3.78,4,9.33,9.33,0,0,0,4.07.2,13.21,13.21,0,0,0,2-.6l.22-.08-.1-.36Z"/><path class="cls-2" d="M194.9,65.22a22.76,22.76,0,0,0-.13-2.62,4.7,4.7,0,0,0-4.11-4.25,11.33,11.33,0,0,0-2.73,0,5,5,0,0,0-4.72,4.09,14.42,14.42,0,0,0-.08,4.3,4.65,4.65,0,0,0,3.11,4.12h0c.81.25,4.81,1.29,8.32-.48l-.14-.51h0c-.17-.69-.36-1.38-.55-2.06l0-.07-.2.07h0l-.45.14-.09,0a14.33,14.33,0,0,1-2.1.44,10.69,10.69,0,0,1-2,0,2,2,0,0,1-1.93-2.19h7.85v-1Zm-3.6-1.73H187a2.31,2.31,0,0,1,.89-2.14,2.4,2.4,0,0,1,2.55-.08C191.25,61.74,191.32,62.58,191.3,63.49Z"/><polygon class="cls-2" points="249.49 58.55 245.24 58.55 241.55 64.32 241.55 52.29 241.55 52.21 241.55 51.72 237.55 52.21 237.55 71.08 241.55 71.08 241.55 65.31 245.24 71.09 249.49 71.09 245.48 64.81 249.49 58.55"/><path class="cls-2" d="M232,58.47a8,8,0,0,0-4.19,0,5,5,0,0,0-3.92,4A13.9,13.9,0,0,0,223.7,66a5.39,5.39,0,0,0,4.38,5.17l.11,0h0l.3,0h.1c.13,0,.28,0,.43.06a7.85,7.85,0,0,0,1.68,0h.09a5.49,5.49,0,0,0,5.26-4.38,9.58,9.58,0,0,0,0-4.23,5.26,5.26,0,0,0-4-4.22Zm.17,7.74c0,.08,0,.16-.05.24a2.27,2.27,0,0,1-4.46-.23,15.34,15.34,0,0,1,0-2.71,2.29,2.29,0,0,1,4.49-.48A12.55,12.55,0,0,1,232.21,66.21Z"/><text class="cls-3" transform="translate(16.82 70.85)">mini</text></g></g></svg>