<svg xmlns="http://www.w3.org/2000/svg" viewBox="0 0 232.67 70.9"><defs><style>.cls-1,.cls-2{fill:#fff;}.cls-1{fill-rule:evenodd;}.cls-2{isolation:isolate;font-size:63.22px;font-family:NunitoSans-Bold, Nunito Sans;font-weight:700;}</style></defs><title>miniFB_transparent</title><g id="Layer_2" data-name="Layer 2"><g id="Layer_1-2" data-name="Layer 1"><g id="Layer_1-2-2" data-name="Layer 1-2"><path class="cls-1" d="M187.38,41.28a4.21,4.21,0,0,0-3.93,1.62V34.75l-4,.48V54.11h4V53a7.29,7.29,0,0,0,1.73,1,4.88,4.88,0,0,0,6.36-2.67l.12-.33a10.41,10.41,0,0,0,.16-6.08A4.69,4.69,0,0,0,187.38,41.28Zm.59,8.17a2.06,2.06,0,0,1-2.26,1.83l-.08,0a2.81,2.81,0,0,1-.8-.18,2.66,2.66,0,0,1-1.31-2h0a9,9,0,0,1,.3-3.61,2.07,2.07,0,0,1,1.86-1.06A2,2,0,0,1,188,46.09s0,.07,0,.1a11.34,11.34,0,0,1,0,3.29Z"/><path class="cls-1" d="M201.56,41.51a8,8,0,0,0-4.18,0,5,5,0,0,0-3.92,4,13.1,13.1,0,0,0-.23,3.53,5.4,5.4,0,0,0,4.37,5.18h.11l.3.06h.53a7.86,7.86,0,0,0,1.68,0h.09a5.47,5.47,0,0,0,5.25-4.37,9.48,9.48,0,0,0,0-4.24,5.25,5.25,0,0,0-4-4.22Zm.17,7.74v.25a2.27,2.27,0,0,1-4.46-.24,13.63,13.63,0,0,1,0-2.71,2.28,2.28,0,0,1,4.48-.48A12.09,12.09,0,0,1,201.73,49.25Z"/><path class="cls-1" d="M141.47,41.44h-2.86v-1.9c.21-1.79,3.18-1.45,3.18-1.45V35h0c-.1,0-5.9-1.4-7,3h0a22.65,22.65,0,0,0-.17,3.39h-2.54v3.38h2.63V54h3.83v-9.2h2.93l.33-3.38Z"/><path class="cls-1" d="M150.6,43l-.13-.14h0l-.1-.1a4.08,4.08,0,0,0-1.94-1.35,4.9,4.9,0,0,0-6.15,3.17c0,.06,0,.12-.05.18a10.79,10.79,0,0,0-.22,5.11c.65,3.69,3.39,4.92,6.31,4.31a3.72,3.72,0,0,0,2.18-1.52l.12-.2v1.62h3.74V41.46h-3.74V43Zm-.33,6.37a2,2,0,0,1-2.15,1.84h0a2.09,2.09,0,0,1-2.15-1.76,11,11,0,0,1,.08-3.57,2.19,2.19,0,0,1,4.26.27,14.72,14.72,0,0,1,0,3.25Z"/><path class="cls-1" d="M165.75,53.21c-.18-.63-.37-1.26-.56-1.86l-.18-.67s-4.69,2.25-5.42-2a10,10,0,0,1,0-2.12,2.3,2.3,0,0,1,2.26-2.14,5.74,5.74,0,0,1,1.31,0c.58.1,1.14.27,1.78.43.22-.67.44-1.34.65-2a1.07,1.07,0,0,0,.09-.27h0l.1-.41a.52.52,0,0,0-.17-.16h0a2,2,0,0,0-.58-.27l-.35-.12h-.17a10,10,0,0,0-3.78-.24,5.36,5.36,0,0,0-5.05,4.51,10.32,10.32,0,0,0,.05,4.18,5.07,5.07,0,0,0,3.78,4,9.18,9.18,0,0,0,4.07.2,11.79,11.79,0,0,0,2-.6l.22-.08-.1-.36Z"/><path class="cls-1" d="M178.08,48.26a23,23,0,0,0-.13-2.62,4.71,4.71,0,0,0-4.11-4.25,11.33,11.33,0,0,0-2.73,0,5,5,0,0,0-4.72,4.09,14.43,14.43,0,0,0-.08,4.3,4.64,4.64,0,0,0,3.11,4.12h0c.81.25,4.81,1.29,8.32-.48l-.14-.51h0c-.17-.69-.36-1.38-.55-2.06v-.07l-.2.07h0l-.45.14h-.09a13.75,13.75,0,0,1-2.1.44,9.55,9.55,0,0,1-2,0,2,2,0,0,1-1.94-2.06s0-.08,0-.13h7.85v-1Zm-3.6-1.73h-4.3a2.31,2.31,0,0,1,.89-2.14,2.42,2.42,0,0,1,2.55-.08c.81.47.88,1.31.86,2.22Z"/><polygon class="cls-1" points="232.67 41.59 228.42 41.59 224.73 47.37 224.73 35.34 224.73 35.26 224.73 34.77 220.73 35.26 220.73 54.13 224.73 54.13 224.73 48.35 228.42 54.13 232.67 54.13 228.66 47.85 232.67 41.59"/><path class="cls-1" d="M215.18,41.51a8,8,0,0,0-4.19,0,5,5,0,0,0-3.92,4,13.94,13.94,0,0,0-.19,3.53,5.38,5.38,0,0,0,4.38,5.17h.51a1.12,1.12,0,0,1,.43.06,7.86,7.86,0,0,0,1.68,0H214a5.49,5.49,0,0,0,5.26-4.38,9.44,9.44,0,0,0,0-4.23,5.27,5.27,0,0,0-4-4.22Zm.17,7.74a.42.42,0,0,1,0,.24,2.27,2.27,0,0,1-4.46-.23,15.33,15.33,0,0,1,0-2.71,2.29,2.29,0,0,1,4.49-.48,13,13,0,0,1,.06,3.18Z"/><text class="cls-2" transform="translate(0 53.89)">mini</text></g></g></g></svg>