<?xml version="1.0" encoding="utf-8"?>
<!-- Generator: Adobe Illustrator 23.1.0, SVG Export Plug-In . SVG Version: 6.00 Build 0)  -->
<svg version="1.1" id="Layer_1" xmlns="http://www.w3.org/2000/svg" xmlns:xlink="http://www.w3.org/1999/xlink" x="0px" y="0px"
	 viewBox="0 0 232.7 70.9" style="enable-background:new 0 0 232.7 70.9;" xml:space="preserve">
<style type="text/css">
	.st0{fill-rule:evenodd;clip-rule:evenodd;fill:#FFFFFF;}
	.st1{enable-background:new    ;}
	.st2{fill:#FFFFFF;}
</style>
<title>miniFB_transparent</title>
<g>
	<g id="Layer_1-2">
		<g id="Layer_1-2-2">
			<path class="st0" d="M175.4-117.2c-1.5-0.2-3,0.4-3.9,1.6v-8.1l-4,0.5v18.9h4v-1.1c0.5,0.4,1.1,0.7,1.7,1c2.5,1,5.3-0.2,6.4-2.7
				l0.1-0.3c0.7-2,0.7-4.1,0.2-6.1C179.4-115.7,177.6-117.2,175.4-117.2z M176-109.1c-0.1,1.1-1.1,1.9-2.3,1.8h-0.1
				c-0.3,0-0.5-0.1-0.8-0.2c-0.7-0.4-1.2-1.2-1.3-2l0,0c-0.1-1.2,0-2.4,0.3-3.6c0.4-0.7,1.1-1.1,1.9-1.1c1.1-0.2,2.1,0.5,2.3,1.6
				c0,0,0,0,0,0c0,0,0,0.1,0,0.1C176.2-111.2,176.2-110.1,176-109.1L176-109.1z"/>
			<path class="st0" d="M189.6-117c-1.4-0.4-2.8-0.4-4.2,0c-2,0.4-3.6,2-3.9,4c-0.2,1.2-0.3,2.3-0.2,3.5c0.1,2.5,1.9,4.7,4.4,5.2
				h0.1l0.3,0.1h0.5c0.6,0.1,1.1,0.1,1.7,0h0.1c2.6-0.1,4.7-1.9,5.3-4.4c0.3-1.4,0.3-2.8,0-4.2C193.3-114.9,191.7-116.6,189.6-117
				L189.6-117z M189.8-109.3v0.3c-0.3,1.2-1.5,2-2.7,1.7c-0.9-0.2-1.6-1-1.7-1.9c-0.1-0.9-0.1-1.8,0-2.7c0.1-1.3,1.1-2.2,2.4-2.2
				c1,0,1.8,0.7,2.1,1.7C189.9-111.4,189.9-110.3,189.8-109.3z"/>
			<path class="st0" d="M129.5-117.1h-2.9v-1.9c0.2-1.8,3.2-1.4,3.2-1.4v-3.1l0,0c-0.1,0-5.9-1.4-7,3l0,0c-0.1,1.1-0.2,2.3-0.2,3.4
				h-2.5v3.4h2.6v9.2h3.8v-9.2h2.9l0.3-3.4L129.5-117.1z"/>
			<path class="st0" d="M138.7-115.5l-0.1-0.1l0,0l-0.1-0.1c-0.5-0.6-1.2-1.1-1.9-1.3c-2.6-0.8-5.3,0.6-6.1,3.2c0,0.1,0,0.1-0.1,0.2
				c-0.5,1.7-0.6,3.4-0.2,5.1c0.6,3.7,3.4,4.9,6.3,4.3c0.9-0.2,1.7-0.8,2.2-1.5l0.1-0.2v1.6h3.7v-12.6h-3.7L138.7-115.5L138.7-115.5
				z M138.3-109.1c-0.1,1.1-1,1.9-2.1,1.8c0,0,0,0,0,0l0,0c-1.1,0-2-0.7-2.1-1.8c-0.2-1.2-0.1-2.4,0.1-3.6c0.3-1.2,1.6-1.8,2.7-1.5
				c0.8,0.2,1.4,0.9,1.5,1.7C138.5-111.3,138.5-110.2,138.3-109.1L138.3-109.1z"/>
			<path class="st0" d="M153.8-105.3c-0.2-0.6-0.4-1.3-0.6-1.9l-0.2-0.7c0,0-4.7,2.3-5.4-2c-0.1-0.7-0.1-1.4,0-2.1
				c0.1-1.2,1.1-2.1,2.3-2.1c0.4,0,0.9,0,1.3,0c0.6,0.1,1.1,0.3,1.8,0.4c0.2-0.7,0.4-1.3,0.6-2c0-0.1,0.1-0.2,0.1-0.3l0,0l0.1-0.4
				c0-0.1-0.1-0.1-0.2-0.2l0,0c-0.2-0.1-0.4-0.2-0.6-0.3l-0.4-0.1h-0.2c-1.2-0.3-2.5-0.4-3.8-0.2c-2.5,0.1-4.6,2-5.1,4.5
				c-0.3,1.4-0.3,2.8,0.1,4.2c0.4,2,1.8,3.5,3.8,4c1.3,0.4,2.7,0.4,4.1,0.2c0.7-0.1,1.4-0.3,2-0.6l0.2-0.1L153.8-105.3L153.8-105.3z
				"/>
			<path class="st0" d="M166.1-110.3c0-0.9,0-1.7-0.1-2.6c-0.2-2.2-1.9-4-4.1-4.3c-0.9-0.1-1.8-0.1-2.7,0c-2.3,0.1-4.3,1.8-4.7,4.1
				c-0.2,1.4-0.3,2.9-0.1,4.3c0.1,1.9,1.3,3.5,3.1,4.1l0,0c0.8,0.3,4.8,1.3,8.3-0.5l-0.1-0.5l0,0c-0.2-0.7-0.4-1.4-0.6-2.1v-0.1
				l-0.2,0.1l0,0l-0.4,0.1h-0.1c-0.7,0.2-1.4,0.3-2.1,0.4c-0.7,0.1-1.3,0.1-2,0c-1.1,0-2-1-1.9-2.1c0,0,0,0,0,0c0,0,0-0.1,0-0.1h7.9
				L166.1-110.3L166.1-110.3z M162.5-112h-4.3c-0.1-0.8,0.2-1.6,0.9-2.1c0.8-0.5,1.8-0.5,2.6-0.1C162.5-113.7,162.6-112.9,162.5-112
				z"/>
			<polygon class="st0" points="220.7,-116.9 216.5,-116.9 212.8,-111.1 212.8,-123.2 212.8,-123.3 212.8,-123.7 208.8,-123.3 
				208.8,-104.4 212.8,-104.4 212.8,-110.2 216.5,-104.4 220.7,-104.4 216.7,-110.7 			"/>
			<path class="st0" d="M203.2-117c-1.4-0.4-2.8-0.4-4.2,0c-2,0.4-3.6,2-3.9,4c-0.2,1.2-0.3,2.4-0.2,3.5c0.1,2.5,1.9,4.7,4.4,5.2
				h0.5c0.1,0,0.3,0,0.4,0.1c0.6,0.1,1.1,0.1,1.7,0h0.1c2.6-0.1,4.7-1.9,5.3-4.4c0.3-1.4,0.3-2.8,0-4.2
				C207-114.9,205.4-116.6,203.2-117L203.2-117z M203.4-109.3c0,0.1,0,0.2,0,0.2c-0.3,1.2-1.5,2-2.7,1.7c-0.9-0.2-1.6-1-1.7-1.9
				c-0.1-0.9-0.1-1.8,0-2.7c0.1-1.3,1.2-2.2,2.4-2.1c1,0.1,1.8,0.7,2.1,1.7C203.6-111.4,203.6-110.3,203.4-109.3L203.4-109.3z"/>
			<g class="st1">
				<path class="st2" d="M36.7-133.2c1.7,2.1,2.6,5.3,2.6,9.6v19h-7.9v-18.6c0-2.4-0.4-4.1-1.2-5.2c-0.8-1.1-2.1-1.6-3.9-1.6
					c-2.1,0-3.8,0.7-4.9,2.1c-1.2,1.4-1.8,3.4-1.8,6v17.3h-7.9v-18.6c0-2.4-0.4-4.1-1.2-5.2c-0.8-1.1-2.1-1.6-3.9-1.6
					c-2.1,0-3.7,0.7-4.9,2.1c-1.2,1.4-1.8,3.4-1.8,6v17.3h-7.9v-30.9h7.7v4.4c0.9-1.7,2.2-3,3.9-3.8c1.6-0.9,3.5-1.3,5.6-1.3
					c4.7,0,7.8,1.9,9.3,5.8c1-1.8,2.4-3.2,4.2-4.3c1.8-1,3.8-1.5,6.1-1.5C32.4-136.3,35-135.3,36.7-133.2z"/>
				<path class="st2" d="M46.9-149.9h8.7v7.8h-8.7V-149.9z M47.4-104.6v-30.9h7.9v30.9H47.4z"/>
				<path class="st2" d="M89.7-133.1c1.8,2.1,2.7,5.3,2.7,9.5v19h-7.9v-18.5c0-2.4-0.5-4.2-1.4-5.2c-0.9-1.1-2.3-1.6-4.3-1.6
					c-2.3,0-4.1,0.7-5.5,2.1c-1.4,1.4-2.1,3.4-2.1,5.8v17.5h-7.9v-30.9h7.7v4.6c1.1-1.7,2.5-3.1,4.2-4c1.8-0.9,3.8-1.4,6-1.4
					C85.1-136.3,87.8-135.2,89.7-133.1z"/>
				<path class="st2" d="M100-149.9h8.7v7.8H100V-149.9z M100.4-104.6v-30.9h7.9v30.9H100.4z"/>
			</g>
		</g>
	</g>
</g>
</svg>
