<svg xmlns="http://www.w3.org/2000/svg" viewBox="0 0 277.3 100"><defs><style>.cls-1{fill:#3b5998;}.cls-2,.cls-4{fill:#fff;}.cls-2{fill-rule:evenodd;}.cls-3{isolation:isolate;}</style></defs><title>miniFB_1</title><g id="Layer_2" data-name="Layer 2"><g id="Layer_1-2" data-name="Layer 1"><g id="Layer_1-2-2" data-name="Layer 1-2"><rect class="cls-1" width="277.3" height="100"/><path class="cls-2" d="M204.2,58.24a4.21,4.21,0,0,0-3.93,1.62V51.71l-4,.48V71.07h4V70A7.64,7.64,0,0,0,202,71a4.87,4.87,0,0,0,6.36-2.68l.12-.32a10.41,10.41,0,0,0,.16-6.08A4.68,4.68,0,0,0,204.2,58.24Zm.59,8.17a2,2,0,0,1-2.26,1.82h-.08a3.7,3.7,0,0,1-.8-.18,2.66,2.66,0,0,1-1.31-2h0a9,9,0,0,1,.3-3.61,2.07,2.07,0,0,1,1.86-1.06,2,2,0,0,1,2.28,1.68s0,.07,0,.1a11.34,11.34,0,0,1,0,3.29Z"/><path class="cls-2" d="M218.38,58.47a8,8,0,0,0-4.18,0,5,5,0,0,0-3.92,4,13.07,13.07,0,0,0-.23,3.53,5.4,5.4,0,0,0,4.37,5.18h.11l.3.06h.53a7.86,7.86,0,0,0,1.68,0h.09a5.48,5.48,0,0,0,5.25-4.37,9.2,9.2,0,0,0,0-4.24,5.24,5.24,0,0,0-4-4.22Zm.17,7.74v.25a2.27,2.27,0,0,1-4.46-.24,13.63,13.63,0,0,1,0-2.71,2.28,2.28,0,0,1,4.48-.48A12.09,12.09,0,0,1,218.55,66.21Z"/><path class="cls-2" d="M158.29,58.4h-2.86V56.5c.21-1.79,3.18-1.45,3.18-1.45V52h0c-.1,0-5.9-1.4-7,3h0a22.58,22.58,0,0,0-.17,3.39H148.9v3.38h2.63V71h3.83V61.8h2.93l.33-3.38Z"/><path class="cls-2" d="M167.42,60l-.13-.14h0l-.1-.1a4,4,0,0,0-1.94-1.35,4.9,4.9,0,0,0-6.15,3.17c0,.06,0,.12,0,.18a10.78,10.78,0,0,0-.22,5.11c.65,3.69,3.39,4.92,6.31,4.31a3.72,3.72,0,0,0,2.18-1.52l.12-.2v1.62h3.74V58.42h-3.74V60Zm-.33,6.37a2,2,0,0,1-2.15,1.83h0a2.1,2.1,0,0,1-2.15-1.76,11,11,0,0,1,.08-3.57,2.19,2.19,0,0,1,4.26.27,14.72,14.72,0,0,1,0,3.25Z"/><path class="cls-2" d="M182.57,70.17c-.18-.63-.37-1.26-.56-1.86l-.18-.67s-4.69,2.25-5.42-2a10,10,0,0,1,.05-2.12,2.3,2.3,0,0,1,2.26-2.14,5.74,5.74,0,0,1,1.31,0c.58.1,1.14.27,1.78.43.22-.67.44-1.34.65-2a1.43,1.43,0,0,0,.09-.27h0l.1-.41a.44.44,0,0,0-.17-.16h0a2,2,0,0,0-.58-.27l-.35-.12h-.17a9.83,9.83,0,0,0-3.78-.24,5.36,5.36,0,0,0-5,4.51,10.33,10.33,0,0,0,0,4.18,5.08,5.08,0,0,0,3.78,4,9.33,9.33,0,0,0,4.07.2,13.94,13.94,0,0,0,2-.6l.22-.08-.1-.36Z"/><path class="cls-2" d="M194.9,65.22a22.87,22.87,0,0,0-.13-2.62,4.7,4.7,0,0,0-4.11-4.25,11.33,11.33,0,0,0-2.73,0,5,5,0,0,0-4.72,4.09,14.42,14.42,0,0,0-.08,4.3,4.65,4.65,0,0,0,3.11,4.12h0c.81.25,4.81,1.29,8.32-.48l-.14-.51h0c-.17-.69-.36-1.38-.55-2.06v-.07l-.2.07h0l-.45.14h-.09a13.75,13.75,0,0,1-2.1.44,11.13,11.13,0,0,1-2,0,2,2,0,0,1-1.94-2.06s0-.09,0-.13H195v-1Zm-3.6-1.73H187a2.3,2.3,0,0,1,.89-2.14,2.42,2.42,0,0,1,2.55-.08c.81.47.88,1.31.86,2.22Z"/><polygon class="cls-2" points="249.49 58.55 245.24 58.55 241.55 64.32 241.55 52.29 241.55 52.21 241.55 51.72 237.55 52.21 237.55 71.08 241.55 71.08 241.55 65.31 245.24 71.09 249.49 71.09 245.48 64.81 249.49 58.55"/><path class="cls-2" d="M232,58.47a8,8,0,0,0-4.19,0,5,5,0,0,0-3.92,4A13.91,13.91,0,0,0,223.7,66a5.39,5.39,0,0,0,4.38,5.17h.51a1.12,1.12,0,0,1,.43.06,7.86,7.86,0,0,0,1.68,0h.09a5.49,5.49,0,0,0,5.26-4.38,9.44,9.44,0,0,0,0-4.23,5.25,5.25,0,0,0-4-4.22Zm.17,7.74a.42.42,0,0,1,0,.24,2.27,2.27,0,0,1-4.46-.23,15.33,15.33,0,0,1,0-2.71,2.29,2.29,0,0,1,4.49-.48,13,13,0,0,1,.06,3.18Z"/><g class="cls-3"><path class="cls-4" d="M65.5,42.31c1.73,2.08,2.59,5.28,2.59,9.57v19h-7.9V52.2q0-3.54-1.2-5.15a4.48,4.48,0,0,0-3.86-1.61,6,6,0,0,0-4.93,2.15,9.17,9.17,0,0,0-1.77,6V70.85h-7.9V52.2q0-3.54-1.17-5.15a4.47,4.47,0,0,0-3.89-1.61,5.94,5.94,0,0,0-4.87,2.15,9.17,9.17,0,0,0-1.77,6V70.85h-7.9V39.94h7.71V44.3a9.25,9.25,0,0,1,3.86-3.83,12,12,0,0,1,5.63-1.29q7,0,9.29,5.81a10.55,10.55,0,0,1,4.17-4.26,12,12,0,0,1,6.07-1.55Q62.91,39.18,65.5,42.31Z"/><path class="cls-4" d="M75.68,25.58H84.4v7.78H75.68Zm.44,45.27V39.94H84V70.85Z"/><path class="cls-4" d="M118.41,42.34q2.73,3.16,2.72,9.54v19h-7.9V52.33c0-2.41-.45-4.15-1.36-5.25a5.22,5.22,0,0,0-4.27-1.64,7.2,7.2,0,0,0-5.47,2.15,8,8,0,0,0-2,5.75V70.85h-7.9V39.94h7.71v4.61a10.68,10.68,0,0,1,4.24-4,12.7,12.7,0,0,1,6-1.39Q115.7,39.18,118.41,42.34Z"/><path class="cls-4" d="M128.72,25.58h8.72v7.78h-8.72Zm.44,45.27V39.94h7.9V70.85Z"/></g></g></g></g></svg>